# xmcd CD database file
#
# Track frame offsets:
#	150
#	17177
#	33417
#	50069
#	66196
#	83823
#	98600
#	114690
#	131342
#	148594
#	167084
#	183924
#	202639
#	223416
#	244231
#	286121
#
# Disc length: 4019 seconds
#
# Revision: 0
# Processed by: cddbd v1.4PL0 Copyright (c) Steve Scherf et al.
# Submitted via: CDex 1.50
#
DISCID=e40fb110
DTITLE=Wolfgang Petry - nie genug
DYEAR=1900
DGENRE=Schlager
TTITLE0=Weiber
TTITLE1=Hab' noch lange nicht genug
TTITLE2=Weiss' der Geier
TTITLE3=Alles würd ich tun für Dich
TTITLE4=Es kommt sowiso ganz anders
TTITLE5=Millionär
TTITLE6=Das darf doch nicht war sein
TTITLE7=Der Sommer von  damals
TTITLE8=Pass' gut auf Dich auf
TTITLE9=Doch ich will Dich
TTITLE10=Wieder zurück
TTITLE11=Dieses Lied ist für Euch
TTITLE12=Ich schaff' das schon
TTITLE13=Wie beim ersten Mal
TTITLE14=Der " Nie Genug " Hitmix
TTITLE15=Augen zu und durch
EXTD=
EXTT0=
EXTT1=
EXTT2=
EXTT3=
EXTT4=
EXTT5=
EXTT6=
EXTT7=
EXTT8=
EXTT9=
EXTT10=
EXTT11=
EXTT12=
EXTT13=
EXTT14=
EXTT15=
PLAYORDER=
